<svg width="3200" height="2100" viewBox="0 0 3200 2100" fill="none" xmlns="http://www.w3.org/2000/svg">
<rect x="27" y="27" width="2334" height="2046" rx="18" fill="#D9D9D9" fill-opacity="0.1" stroke="#888888" stroke-width="4"/>
<rect x="2388" y="27" width="785" height="2046" rx="18" fill="#D9D9D9" fill-opacity="0.1" stroke="#888888" stroke-width="4"/>
<path d="M1117.88 1040.65H1110.12C1109.82 1038.99 1109.27 1037.53 1108.46 1036.27C1107.64 1035.01 1106.65 1033.94 1105.47 1033.06C1104.3 1032.19 1102.98 1031.52 1101.52 1031.08C1100.08 1030.63 1098.55 1030.4 1096.92 1030.4C1093.99 1030.4 1091.36 1031.14 1089.04 1032.62C1086.74 1034.09 1084.91 1036.25 1083.57 1039.11C1082.25 1041.96 1081.58 1045.44 1081.58 1049.55C1081.58 1053.69 1082.25 1057.19 1083.57 1060.04C1084.91 1062.89 1086.75 1065.04 1089.07 1066.5C1091.39 1067.96 1094 1068.69 1096.9 1068.69C1098.5 1068.69 1100.03 1068.47 1101.47 1068.04C1102.93 1067.59 1104.25 1066.94 1105.42 1066.08C1106.6 1065.21 1107.59 1064.16 1108.41 1062.92C1109.23 1061.66 1109.81 1060.22 1110.12 1058.59L1117.88 1058.62C1117.46 1061.12 1116.66 1063.42 1115.47 1065.53C1114.29 1067.62 1112.77 1069.42 1110.92 1070.95C1109.08 1072.46 1106.97 1073.62 1104.6 1074.45C1102.23 1075.28 1099.65 1075.7 1096.85 1075.7C1092.44 1075.7 1088.51 1074.65 1085.06 1072.56C1081.62 1070.46 1078.9 1067.45 1076.91 1063.54C1074.94 1059.63 1073.95 1054.96 1073.95 1049.55C1073.95 1044.11 1074.95 1039.44 1076.94 1035.55C1078.92 1031.64 1081.64 1028.64 1085.09 1026.55C1088.54 1024.45 1092.46 1023.39 1096.85 1023.39C1099.55 1023.39 1102.07 1023.78 1104.4 1024.56C1106.76 1025.33 1108.87 1026.45 1110.74 1027.94C1112.61 1029.42 1114.16 1031.23 1115.39 1033.36C1116.62 1035.48 1117.45 1037.91 1117.88 1040.65ZM1137.58 1075.85C1135.16 1075.85 1132.98 1075.4 1131.02 1074.5C1129.06 1073.59 1127.52 1072.27 1126.37 1070.55C1125.24 1068.83 1124.68 1066.71 1124.68 1064.21C1124.68 1062.06 1125.1 1060.28 1125.92 1058.89C1126.75 1057.5 1127.87 1056.4 1129.28 1055.59C1130.69 1054.77 1132.26 1054.16 1134 1053.75C1135.74 1053.33 1137.52 1053.02 1139.32 1052.8C1141.61 1052.54 1143.47 1052.32 1144.89 1052.16C1146.32 1051.97 1147.35 1051.68 1148 1051.29C1148.64 1050.89 1148.97 1050.24 1148.97 1049.35V1049.17C1148.97 1047 1148.35 1045.32 1147.13 1044.13C1145.92 1042.93 1144.11 1042.34 1141.71 1042.34C1139.21 1042.34 1137.23 1042.89 1135.79 1044C1134.37 1045.1 1133.38 1046.31 1132.83 1047.66L1125.85 1046.07C1126.68 1043.75 1127.89 1041.87 1129.48 1040.45C1131.09 1039.01 1132.93 1037.96 1135.02 1037.32C1137.11 1036.65 1139.31 1036.32 1141.61 1036.32C1143.13 1036.32 1144.75 1036.5 1146.46 1036.87C1148.18 1037.22 1149.79 1037.86 1151.28 1038.81C1152.79 1039.75 1154.02 1041.1 1154.98 1042.86C1155.94 1044.6 1156.42 1046.86 1156.42 1049.64V1075H1149.17V1069.78H1148.87C1148.39 1070.74 1147.67 1071.69 1146.71 1072.61C1145.74 1073.54 1144.51 1074.31 1143 1074.93C1141.49 1075.54 1139.69 1075.85 1137.58 1075.85ZM1139.2 1069.88C1141.25 1069.88 1143.01 1069.47 1144.47 1068.66C1145.94 1067.85 1147.06 1066.79 1147.82 1065.48C1148.6 1064.15 1148.99 1062.74 1148.99 1061.23V1056.31C1148.73 1056.57 1148.21 1056.82 1147.45 1057.05C1146.71 1057.27 1145.85 1057.46 1144.89 1057.62C1143.93 1057.77 1142.99 1057.91 1142.08 1058.05C1141.17 1058.16 1140.41 1058.26 1139.79 1058.35C1138.35 1058.53 1137.04 1058.83 1135.84 1059.26C1134.67 1059.7 1133.72 1060.32 1133.01 1061.13C1132.31 1061.92 1131.96 1062.99 1131.96 1064.31C1131.96 1066.15 1132.64 1067.54 1134 1068.49C1135.36 1069.42 1137.09 1069.88 1139.2 1069.88ZM1173.76 1052.33V1075H1166.32V1036.82H1173.46V1043.03H1173.93C1174.81 1041.01 1176.18 1039.39 1178.06 1038.16C1179.95 1036.93 1182.32 1036.32 1185.19 1036.32C1187.79 1036.32 1190.07 1036.87 1192.03 1037.96C1193.98 1039.04 1195.5 1040.65 1196.58 1042.78C1197.65 1044.92 1198.19 1047.57 1198.19 1050.71V1075H1190.76V1051.61C1190.76 1048.84 1190.04 1046.68 1188.6 1045.12C1187.16 1043.55 1185.18 1042.76 1182.66 1042.76C1180.93 1042.76 1179.4 1043.13 1178.06 1043.88C1176.73 1044.62 1175.68 1045.72 1174.9 1047.16C1174.14 1048.58 1173.76 1050.31 1173.76 1052.33ZM1239.46 1036.82L1225.61 1075H1217.66L1203.79 1036.82H1211.76L1221.43 1066.2H1221.83L1231.48 1036.82H1239.46ZM1256.46 1075.85C1254.04 1075.85 1251.85 1075.4 1249.9 1074.5C1247.94 1073.59 1246.39 1072.27 1245.25 1070.55C1244.12 1068.83 1243.56 1066.71 1243.56 1064.21C1243.56 1062.06 1243.97 1060.28 1244.8 1058.89C1245.63 1057.5 1246.75 1056.4 1248.16 1055.59C1249.57 1054.77 1251.14 1054.16 1252.88 1053.75C1254.62 1053.33 1256.39 1053.02 1258.2 1052.8C1260.49 1052.54 1262.34 1052.32 1263.77 1052.16C1265.19 1051.97 1266.23 1051.68 1266.88 1051.29C1267.52 1050.89 1267.84 1050.24 1267.84 1049.35V1049.17C1267.84 1047 1267.23 1045.32 1266 1044.13C1264.8 1042.93 1262.99 1042.34 1260.59 1042.34C1258.08 1042.34 1256.11 1042.89 1254.67 1044C1253.24 1045.1 1252.26 1046.31 1251.71 1047.66L1244.73 1046.07C1245.56 1043.75 1246.76 1041.87 1248.36 1040.45C1249.96 1039.01 1251.81 1037.96 1253.9 1037.32C1255.99 1036.65 1258.18 1036.32 1260.49 1036.32C1262.01 1036.32 1263.63 1036.5 1265.33 1036.87C1267.06 1037.22 1268.66 1037.86 1270.16 1038.81C1271.66 1039.75 1272.9 1041.1 1273.86 1042.86C1274.82 1044.6 1275.3 1046.86 1275.3 1049.64V1075H1268.04V1069.78H1267.75C1267.26 1070.74 1266.54 1071.69 1265.58 1072.61C1264.62 1073.54 1263.39 1074.31 1261.88 1074.93C1260.37 1075.54 1258.56 1075.85 1256.46 1075.85ZM1258.08 1069.88C1260.13 1069.88 1261.89 1069.47 1263.35 1068.66C1264.82 1067.85 1265.94 1066.79 1266.7 1065.48C1267.48 1064.15 1267.87 1062.74 1267.87 1061.23V1056.31C1267.6 1056.57 1267.09 1056.82 1266.33 1057.05C1265.58 1057.27 1264.73 1057.46 1263.77 1057.62C1262.81 1057.77 1261.87 1057.91 1260.96 1058.05C1260.05 1058.16 1259.29 1058.26 1258.67 1058.35C1257.23 1058.53 1255.91 1058.83 1254.72 1059.26C1253.54 1059.7 1252.6 1060.32 1251.89 1061.13C1251.19 1061.92 1250.84 1062.99 1250.84 1064.31C1250.84 1066.15 1251.52 1067.54 1252.88 1068.49C1254.24 1069.42 1255.97 1069.88 1258.08 1069.88ZM1313.81 1046.14L1307.08 1047.33C1306.79 1046.47 1306.35 1045.65 1305.73 1044.87C1305.14 1044.09 1304.33 1043.46 1303.3 1042.96C1302.27 1042.46 1300.99 1042.21 1299.45 1042.21C1297.34 1042.21 1295.58 1042.68 1294.18 1043.63C1292.77 1044.56 1292.06 1045.76 1292.06 1047.23C1292.06 1048.51 1292.53 1049.54 1293.48 1050.32C1294.42 1051.09 1295.95 1051.73 1298.05 1052.23L1304.12 1053.62C1307.63 1054.43 1310.25 1055.69 1311.97 1057.38C1313.7 1059.07 1314.56 1061.26 1314.56 1063.96C1314.56 1066.25 1313.9 1068.29 1312.57 1070.08C1311.26 1071.85 1309.43 1073.24 1307.08 1074.25C1304.74 1075.27 1302.03 1075.77 1298.95 1075.77C1294.67 1075.77 1291.18 1074.86 1288.48 1073.04C1285.78 1071.2 1284.12 1068.59 1283.51 1065.21L1290.7 1064.11C1291.14 1065.98 1292.06 1067.4 1293.45 1068.36C1294.85 1069.31 1296.66 1069.78 1298.9 1069.78C1301.33 1069.78 1303.28 1069.27 1304.74 1068.26C1306.2 1067.24 1306.93 1065.98 1306.93 1064.51C1306.93 1063.32 1306.48 1062.31 1305.59 1061.5C1304.71 1060.69 1303.36 1060.08 1301.53 1059.66L1295.07 1058.25C1291.51 1057.43 1288.87 1056.14 1287.17 1054.37C1285.47 1052.59 1284.63 1050.35 1284.63 1047.63C1284.63 1045.38 1285.26 1043.41 1286.52 1041.72C1287.78 1040.02 1289.52 1038.71 1291.74 1037.76C1293.96 1036.8 1296.5 1036.32 1299.37 1036.32C1303.5 1036.32 1306.75 1037.22 1309.11 1039.01C1311.48 1040.78 1313.05 1043.16 1313.81 1046.14Z" fill="#838383"/>
<path d="M2756.89 1075H2748.74L2767.06 1024.09H2775.93L2794.25 1075H2786.1L2771.71 1033.34H2771.31L2756.89 1075ZM2758.26 1055.06H2784.71V1061.53H2758.26V1055.06ZM2809.29 1024.09V1075H2801.61V1024.09H2809.29Z" fill="#838383"/>
</svg>
