<svg width="3200" height="2100" viewBox="0 0 3200 2100" fill="none" xmlns="http://www.w3.org/2000/svg">
<rect x="27" y="27" width="2334" height="2046" rx="18" stroke="#888888" stroke-width="4"/>
<rect x="2388" y="27" width="785" height="2046" rx="18" stroke="#888888" stroke-width="4"/>
<path d="M1129.04 1041.55H1122.39C1122.13 1040.13 1121.66 1038.88 1120.96 1037.8C1120.27 1036.72 1119.41 1035.81 1118.4 1035.06C1117.4 1034.3 1116.27 1033.73 1115.02 1033.35C1113.78 1032.97 1112.47 1032.78 1111.08 1032.78C1108.56 1032.78 1106.31 1033.41 1104.32 1034.67C1102.35 1035.94 1100.78 1037.79 1099.63 1040.23C1098.5 1042.68 1097.93 1045.66 1097.93 1049.18C1097.93 1052.73 1098.5 1055.73 1099.63 1058.17C1100.78 1060.62 1102.35 1062.46 1104.34 1063.71C1106.33 1064.96 1108.57 1065.59 1111.05 1065.59C1112.43 1065.59 1113.74 1065.4 1114.97 1065.03C1116.22 1064.65 1117.35 1064.09 1118.36 1063.35C1119.37 1062.61 1120.22 1061.71 1120.92 1060.64C1121.63 1059.57 1122.12 1058.33 1122.39 1056.94L1129.04 1056.96C1128.68 1059.1 1127.99 1061.08 1126.97 1062.88C1125.96 1064.67 1124.66 1066.22 1123.07 1067.53C1121.49 1068.82 1119.69 1069.82 1117.66 1070.53C1115.63 1071.24 1113.41 1071.6 1111.01 1071.6C1107.23 1071.6 1103.87 1070.7 1100.91 1068.91C1097.96 1067.11 1095.63 1064.53 1093.92 1061.18C1092.23 1057.83 1091.39 1053.83 1091.39 1049.18C1091.39 1044.52 1092.24 1040.52 1093.94 1037.19C1095.65 1033.83 1097.98 1031.26 1100.93 1029.47C1103.89 1027.67 1107.25 1026.77 1111.01 1026.77C1113.33 1026.77 1115.49 1027.1 1117.49 1027.77C1119.51 1028.42 1121.32 1029.39 1122.92 1030.67C1124.53 1031.93 1125.86 1033.48 1126.91 1035.31C1127.96 1037.13 1128.67 1039.21 1129.04 1041.55ZM1145.93 1071.72C1143.85 1071.72 1141.98 1071.34 1140.3 1070.57C1138.63 1069.79 1137.3 1068.66 1136.32 1067.19C1135.35 1065.71 1134.87 1063.9 1134.87 1061.75C1134.87 1059.91 1135.22 1058.39 1135.94 1057.19C1136.65 1056 1137.6 1055.06 1138.81 1054.36C1140.02 1053.66 1141.37 1053.14 1142.86 1052.78C1144.35 1052.43 1145.87 1052.16 1147.42 1051.97C1149.38 1051.75 1150.97 1051.56 1152.19 1051.42C1153.41 1051.26 1154.3 1051.01 1154.86 1050.67C1155.41 1050.33 1155.69 1049.78 1155.69 1049.01V1048.86C1155.69 1047 1155.16 1045.56 1154.11 1044.54C1153.07 1043.51 1151.52 1043 1149.46 1043C1147.32 1043 1145.63 1043.48 1144.39 1044.43C1143.17 1045.37 1142.33 1046.41 1141.86 1047.56L1135.87 1046.2C1136.58 1044.21 1137.62 1042.61 1138.98 1041.38C1140.36 1040.15 1141.94 1039.25 1143.73 1038.7C1145.52 1038.13 1147.41 1037.85 1149.38 1037.85C1150.69 1037.85 1152.07 1038 1153.53 1038.32C1155.01 1038.61 1156.39 1039.17 1157.67 1039.98C1158.96 1040.79 1160.02 1041.94 1160.84 1043.45C1161.67 1044.94 1162.08 1046.88 1162.08 1049.27V1071H1155.86V1066.53H1155.6C1155.19 1067.35 1154.57 1068.16 1153.75 1068.95C1152.92 1069.75 1151.87 1070.41 1150.57 1070.94C1149.28 1071.46 1147.73 1071.72 1145.93 1071.72ZM1147.31 1066.61C1149.07 1066.61 1150.58 1066.26 1151.83 1065.57C1153.09 1064.87 1154.05 1063.96 1154.71 1062.84C1155.37 1061.7 1155.71 1060.49 1155.71 1059.2V1054.98C1155.48 1055.2 1155.04 1055.42 1154.39 1055.62C1153.75 1055.8 1153.02 1055.96 1152.19 1056.11C1151.37 1056.23 1150.57 1056.36 1149.78 1056.47C1149 1056.57 1148.35 1056.65 1147.82 1056.72C1146.59 1056.88 1145.46 1057.14 1144.44 1057.51C1143.43 1057.88 1142.62 1058.41 1142.01 1059.11C1141.41 1059.79 1141.11 1060.7 1141.11 1061.84C1141.11 1063.41 1141.69 1064.61 1142.86 1065.42C1144.02 1066.21 1145.51 1066.61 1147.31 1066.61ZM1176.93 1051.57V1071H1170.56V1038.27H1176.68V1043.6H1177.08C1177.84 1041.87 1179.02 1040.47 1180.62 1039.42C1182.24 1038.37 1184.28 1037.85 1186.74 1037.85C1188.97 1037.85 1190.92 1038.32 1192.6 1039.25C1194.27 1040.18 1195.57 1041.55 1196.49 1043.39C1197.42 1045.22 1197.88 1047.48 1197.88 1050.18V1071H1191.51V1050.95C1191.51 1048.58 1190.89 1046.72 1189.65 1045.39C1188.42 1044.04 1186.72 1043.37 1184.56 1043.37C1183.09 1043.37 1181.77 1043.68 1180.62 1044.32C1179.48 1044.96 1178.58 1045.9 1177.91 1047.14C1177.26 1048.36 1176.93 1049.84 1176.93 1051.57ZM1233.25 1038.27L1221.38 1071H1214.56L1202.67 1038.27H1209.51L1217.8 1063.46H1218.14L1226.41 1038.27H1233.25ZM1247.82 1071.72C1245.75 1071.72 1243.87 1071.34 1242.2 1070.57C1240.52 1069.79 1239.19 1068.66 1238.21 1067.19C1237.25 1065.71 1236.76 1063.9 1236.76 1061.75C1236.76 1059.91 1237.12 1058.39 1237.83 1057.19C1238.54 1056 1239.5 1055.06 1240.71 1054.36C1241.91 1053.66 1243.26 1053.14 1244.75 1052.78C1246.25 1052.43 1247.77 1052.16 1249.31 1051.97C1251.27 1051.75 1252.87 1051.56 1254.09 1051.42C1255.31 1051.26 1256.2 1051.01 1256.75 1050.67C1257.3 1050.33 1257.58 1049.78 1257.58 1049.01V1048.86C1257.58 1047 1257.06 1045.56 1256 1044.54C1254.97 1043.51 1253.42 1043 1251.36 1043C1249.21 1043 1247.52 1043.48 1246.29 1044.43C1245.07 1045.37 1244.22 1046.41 1243.75 1047.56L1237.77 1046.2C1238.48 1044.21 1239.51 1042.61 1240.88 1041.38C1242.25 1040.15 1243.84 1039.25 1245.63 1038.7C1247.42 1038.13 1249.3 1037.85 1251.27 1037.85C1252.58 1037.85 1253.97 1038 1255.43 1038.32C1256.91 1038.61 1258.28 1039.17 1259.56 1039.98C1260.86 1040.79 1261.91 1041.94 1262.74 1043.45C1263.56 1044.94 1263.97 1046.88 1263.97 1049.27V1071H1257.75V1066.53H1257.5C1257.08 1067.35 1256.47 1068.16 1255.64 1068.95C1254.82 1069.75 1253.76 1070.41 1252.47 1070.94C1251.17 1071.46 1249.63 1071.72 1247.82 1071.72ZM1249.21 1066.61C1250.97 1066.61 1252.47 1066.26 1253.72 1065.57C1254.99 1064.87 1255.95 1063.96 1256.6 1062.84C1257.27 1061.7 1257.6 1060.49 1257.6 1059.2V1054.98C1257.38 1055.2 1256.93 1055.42 1256.28 1055.62C1255.64 1055.8 1254.91 1055.96 1254.09 1056.11C1253.26 1056.23 1252.46 1056.36 1251.68 1056.47C1250.9 1056.57 1250.24 1056.65 1249.72 1056.72C1248.48 1056.88 1247.35 1057.14 1246.33 1057.51C1245.32 1057.88 1244.51 1058.41 1243.9 1059.11C1243.31 1059.79 1243.01 1060.7 1243.01 1061.84C1243.01 1063.41 1243.59 1064.61 1244.75 1065.42C1245.92 1066.21 1247.4 1066.61 1249.21 1066.61ZM1296.98 1046.26L1291.21 1047.29C1290.97 1046.55 1290.58 1045.84 1290.06 1045.18C1289.55 1044.51 1288.85 1043.96 1287.97 1043.54C1287.09 1043.11 1285.99 1042.9 1284.67 1042.9C1282.86 1042.9 1281.36 1043.3 1280.15 1044.11C1278.94 1044.91 1278.34 1045.94 1278.34 1047.2C1278.34 1048.29 1278.74 1049.17 1279.55 1049.84C1280.36 1050.51 1281.67 1051.06 1283.47 1051.48L1288.67 1052.68C1291.68 1053.37 1293.93 1054.44 1295.41 1055.89C1296.88 1057.34 1297.62 1059.22 1297.62 1061.54C1297.62 1063.5 1297.05 1065.25 1295.92 1066.78C1294.8 1068.3 1293.23 1069.49 1291.21 1070.36C1289.21 1071.23 1286.88 1071.66 1284.24 1071.66C1280.58 1071.66 1277.59 1070.88 1275.27 1069.32C1272.96 1067.74 1271.54 1065.5 1271.01 1062.61L1277.17 1061.67C1277.55 1063.27 1278.34 1064.49 1279.53 1065.31C1280.73 1066.12 1282.28 1066.53 1284.2 1066.53C1286.29 1066.53 1287.96 1066.09 1289.21 1065.23C1290.46 1064.35 1291.08 1063.27 1291.08 1062.01C1291.08 1060.99 1290.7 1060.13 1289.93 1059.43C1289.18 1058.73 1288.02 1058.21 1286.46 1057.85L1280.92 1056.64C1277.86 1055.94 1275.6 1054.84 1274.14 1053.32C1272.69 1051.8 1271.97 1049.87 1271.97 1047.54C1271.97 1045.61 1272.51 1043.92 1273.59 1042.47C1274.67 1041.02 1276.16 1039.89 1278.06 1039.08C1279.97 1038.26 1282.15 1037.85 1284.6 1037.85C1288.14 1037.85 1290.92 1038.61 1292.96 1040.15C1294.99 1041.67 1296.33 1043.71 1296.98 1046.26Z" fill="#6B6B6B"/>
<path d="M2759.48 1077H2752.49L2768.19 1033.36H2775.8L2791.5 1077H2784.52L2772.18 1041.29H2771.84L2759.48 1077ZM2760.65 1059.91H2783.32V1065.45H2760.65V1059.91ZM2804.39 1033.36V1077H2797.81V1033.36H2804.39Z" fill="#6B6B6B"/>
</svg>
