<svg width="562" height="158" viewBox="0 0 562 158" fill="none" xmlns="http://www.w3.org/2000/svg">
<path d="M0 0V123H22.3652V70.749H79.5745V123H102V0H79.5745V52.0708H22.3652V0H0Z" fill="black"/>
<path fill-rule="evenodd" clip-rule="evenodd" d="M325.954 125C318.719 125 312.243 123.133 306.527 119.398C300.811 115.663 296.294 110.241 292.977 103.133C289.659 96.0241 288 87.3896 288 77.2289C288 66.9478 289.679 58.2731 293.037 51.2048C296.434 44.0964 301.011 38.7349 306.767 35.1205C312.523 31.4659 318.939 29.6386 326.014 29.6386C331.41 29.6386 335.847 30.5623 339.325 32.4096C342.802 34.2169 345.56 36.4056 347.599 38.9759C349.637 41.506 351.216 43.8956 352.336 46.1446H353.235V0H375V123.373H353.655V108.795H352.336C351.216 111.044 349.598 113.434 347.479 115.964C345.36 118.454 342.562 120.582 339.085 122.349C335.607 124.116 331.23 125 325.954 125ZM332.01 107.108C336.606 107.108 340.524 105.863 343.762 103.373C346.999 100.843 349.458 97.3293 351.136 92.8313C352.815 88.3333 353.655 83.0924 353.655 77.1084C353.655 71.1245 352.815 65.9237 351.136 61.506C349.498 57.0884 347.059 53.6546 343.821 51.2048C340.624 48.755 336.686 47.5301 332.01 47.5301C327.173 47.5301 323.136 48.7952 319.898 51.3253C316.66 53.8554 314.222 57.3494 312.583 61.8072C310.944 66.2651 310.125 71.3655 310.125 77.1084C310.125 82.8916 310.944 88.0522 312.583 92.5904C314.262 97.0884 316.72 100.643 319.958 103.253C323.236 105.823 327.253 107.108 332.01 107.108Z" fill="black"/>
<path fill-rule="evenodd" clip-rule="evenodd" d="M403.155 121.887C407.864 123.962 413.157 125 419.034 125C423.864 125 428.07 124.342 431.653 123.025C435.275 121.668 438.274 119.892 440.649 117.697C443.064 115.462 444.936 113.068 446.264 110.514H446.989V123.144H468V61.6068C468 55.5009 466.873 50.4127 464.619 46.3422C462.405 42.2716 459.467 39.059 455.804 36.7045C452.141 34.31 448.096 32.594 443.668 31.5564C439.24 30.5188 434.792 30 430.325 30C423.844 30 417.927 30.9578 412.574 32.8733C407.22 34.749 402.692 37.5824 398.989 41.3737C395.286 45.125 392.629 49.7942 391.019 55.3812L411.426 58.2546C412.513 55.1019 414.606 52.3682 417.706 50.0536C420.845 47.7389 425.092 46.5816 430.445 46.5816C435.517 46.5816 439.401 47.8187 442.098 50.293C444.795 52.7673 446.143 56.2592 446.143 60.7687V61.1279C446.143 63.2031 445.358 64.7395 443.789 65.7372C442.259 66.695 439.804 67.4134 436.423 67.8923C433.042 68.3312 428.634 68.8301 423.2 69.3888C418.692 69.8677 414.325 70.6459 410.098 71.7234C405.912 72.761 402.148 74.2974 398.808 76.3327C395.467 78.368 392.83 81.0817 390.898 84.4738C388.966 87.866 388 92.1561 388 97.344C388 103.37 389.348 108.438 392.045 112.549C394.782 116.659 398.486 119.772 403.155 121.887ZM436.121 106.503C432.901 108.219 429.097 109.077 424.709 109.077C420.161 109.077 416.418 108.059 413.479 106.024C410.541 103.989 409.072 100.976 409.072 96.9849C409.072 94.1914 409.816 91.9166 411.306 90.1607C412.795 88.3648 414.828 86.9681 417.404 85.9704C419.98 84.9727 422.898 84.2544 426.158 83.8154C427.608 83.6158 429.318 83.3764 431.291 83.097C433.263 82.8177 435.255 82.4984 437.268 82.1393C439.281 81.7801 441.092 81.3611 442.702 80.8822C444.352 80.4033 445.52 79.8845 446.204 79.3258V90.1607C446.204 93.5528 445.318 96.6856 443.547 99.5589C441.816 102.432 439.341 104.747 436.121 106.503Z" fill="black"/>
<path d="M484.651 157.278C487.181 157.759 489.932 158 492.904 158C498.606 158 503.506 157.058 507.602 155.174C511.739 153.33 515.233 150.644 518.084 147.116C520.936 143.628 523.225 139.439 524.952 134.548L562 31H538.807L517.422 100.754H516.458L495.133 31H472L505.554 125.288L503.687 130.279C502.361 133.767 500.735 136.252 498.807 137.735C496.92 139.259 494.731 140.04 492.241 140.08C489.751 140.121 486.92 139.68 483.747 138.758L478.687 155.715C480.173 156.316 482.161 156.837 484.651 157.278Z" fill="black"/>
<path d="M211.51 157.278C214.012 157.759 216.732 158 219.671 158C225.311 158 230.156 157.058 234.207 155.174C238.297 153.33 241.753 150.644 244.572 147.116C247.392 143.628 249.656 139.439 251.363 134.548L288 31H265.065L243.917 100.754H242.964L221.876 31H199L232.181 125.288L230.335 130.279C229.024 133.767 227.416 136.252 225.509 137.735C223.643 139.259 221.478 140.04 219.016 140.08C216.554 140.121 213.754 139.68 210.616 138.758L205.612 155.715C207.082 156.316 209.048 156.837 211.51 157.278Z" fill="black"/>
<path fill-rule="evenodd" clip-rule="evenodd" d="M157.896 125C148.628 125 140.624 123.083 133.883 119.25C127.183 115.376 122.027 109.905 118.416 102.837C114.805 95.7293 113 87.3634 113 77.7396C113 68.2755 114.805 59.9695 118.416 52.8216C122.067 45.6337 127.163 40.0431 133.703 36.0498C140.242 32.0166 147.926 30 156.752 30C162.449 30 167.826 30.9185 172.881 32.7554C177.976 34.5523 182.47 37.3476 186.362 41.1412C190.294 44.9348 193.383 49.7667 195.63 55.6368C197.877 61.467 199 68.4153 199 76.4817V83.1305H134.609C134.673 88.2515 135.655 92.664 137.554 96.3682C139.52 100.162 142.268 103.077 145.799 105.113C149.33 107.11 153.462 108.108 158.197 108.108C161.366 108.108 164.235 107.669 166.803 106.791C169.37 105.872 171.597 104.534 173.483 102.777C175.369 101.02 176.793 98.8441 177.756 96.2484L198.097 98.5246C196.813 103.876 194.366 108.548 190.755 112.541C187.184 116.494 182.61 119.569 177.034 121.765C171.457 123.922 165.077 125 157.896 125ZM137.434 58.512C135.787 61.5761 134.859 64.9105 134.65 68.5151H178.117C178.077 64.3621 177.174 60.6683 175.409 57.4338C173.643 54.1593 171.176 51.5836 168.006 49.7068C164.877 47.83 161.226 46.8915 157.053 46.8915C152.6 46.8915 148.688 47.9697 145.318 50.1261C141.948 52.2425 139.32 55.0378 137.434 58.512Z" fill="black"/>
</svg>
