<?xml version="1.0" encoding="utf-8"?>
<!-- Generator: Adobe Illustrator 27.6.1, SVG Export Plug-In . SVG Version: 6.00 Build 0)  -->
<svg version="1.1" xmlns="http://www.w3.org/2000/svg" xmlns:xlink="http://www.w3.org/1999/xlink" x="0px" y="0px"
	 viewBox="0 0 1008 720" style="enable-background:new 0 0 1008 720;" xml:space="preserve">
<style type="text/css">
	.st0{fill:none;stroke:#999999;stroke-miterlimit:10;}
	.st1{fill:#212121;}
</style>
<g id="Layer_1">
	<line class="st0" x1="1148.65" y1="3043.95" x2="1148.65" y2="3288.48"/>
	<g>
		<path class="st1" d="M386.82,488.91c-4.46,2.09-8.66,4.7-13.24,6.07c-16.08,4.82-30.62,1.52-43.69-9.02
			c-10.27-8.28-16.44-19.07-18.28-31.85c-2.87-19.98,3.25-37.1,19.13-49.98c6.92-5.61,15.02-8.99,24.11-9.97
			c9.23-1,17.95,0.33,26.17,4.52c2.79,1.42,5.21,3.58,8.27,5.73c0.05-1.61,0.07-2.72,0.11-3.83c0.1-2.83,1.83-4.65,4.62-4.59
			c7.28,0.15,14.58,0.19,21.84,0.71c4.05,0.29,5.99,1.64,5.85,6.32c-0.95,31.26-1.69,62.52-2.84,93.78
			c-0.44,12.02-3.02,23.57-10.5,33.56c-5.83,7.79-13.49,12.83-22.39,16.45c-10.08,4.1-20.6,4.23-30.98,2.95
			c-12.13-1.49-23.26-6.01-31.63-15.54c-2.54-2.9-4.86-6.03-6.94-9.27c-1.21-1.89-0.01-3.76,1.79-4.61
			c6.69-3.16,13.42-6.22,20.23-9.11c1.8-0.76,3.76-0.4,5.19,1.4c3.38,4.25,7.74,7.34,13.02,8.34c11.25,2.15,21.84,0.16,27.49-11.11
			c1.32-2.63,1.89-5.76,2.21-8.72C386.83,496.92,386.71,492.68,386.82,488.91z M364.39,467.97c13.09,0.17,23.19-8.15,23.48-21.66
			c0.27-12.88-7.35-22.11-21.87-23.05c-10.45-0.68-22.79,7.67-22.18,24.07C344.18,457.42,352.91,467.14,364.39,467.97z"/>
		<path class="st1" d="M730.48,414.19c0.57-19.42,1.12-38.25,1.67-57.08c0.17-5.78,1.37-6.91,7.11-6.75
			c6.41,0.18,12.81,0.34,19.22,0.57c4.63,0.17,6.24,1.86,6.11,6.42c-1.39,47.94-2.8,95.89-4.21,143.83
			c-0.13,4.39-2.21,6.27-6.7,6.15c-6.7-0.19-13.39-0.39-20.09-0.59c-4.52-0.13-5.86-1.58-5.74-6.17c0.02-0.86,0.05-1.71,0.08-2.84
			c-2.88,1.66-5.48,3.24-8.15,4.69c-8.51,4.61-17.51,5.42-26.96,3.78c-10.76-1.87-19.57-7.11-26.88-14.98
			c-7.72-8.32-11.98-18.28-13.35-29.53c-1.36-11.16,0.41-21.79,5.84-31.59c6.41-11.58,15.79-19.7,28.58-23.96
			c6.51-2.17,13.01-2.75,19.67-2.17c8.24,0.72,15.82,3.38,22.21,8.87C729.28,413.2,729.7,413.54,730.48,414.19z M705.51,477.95
			c13.19,0.33,23.59-8.83,23.58-22.37c-0.01-12.7-8.74-21.85-21.98-22.37c-12.31-0.48-21.86,9.37-22.14,21.67
			C684.69,467.18,693.7,477.42,705.51,477.95z"/>
		<path class="st1" d="M577.41,409.13c2.65-1.52,4.95-2.94,7.33-4.19c7.95-4.16,16.3-4.78,25.11-3.37
			c6.17,0.99,11.81,2.85,16.91,6.42c7.25,5.06,11.2,12.23,13.53,20.57c2.19,7.84,2.23,15.82,2.05,23.82
			c-0.33,14.75-0.83,29.51-1.27,44.26c-0.17,5.87-1.71,7.36-7.44,7.19c-6.7-0.2-13.39-0.38-20.09-0.59c-3.57-0.11-5.16-1.8-5.06-5.4
			c0.44-15.33,1.05-30.67,1.24-46.01c0.29-4.84-0.23-8.59-1.99-12.45s-5.38-7.6-10.71-8.44c-3.84-0.6-7.39-0.6-11.13,0.59
			c-5.65,1.8-8.64,8.65-8.98,11.31c-0.27,2.13-0.65,4.72-0.72,7.09c-0.49,15.14-0.9,30.28-1.35,45.42c-0.15,5.14-1.85,6.7-7.03,6.55
			c-6.79-0.2-13.59-0.39-20.38-0.6c-3.5-0.11-4.94-1.56-4.85-5.14c0.24-9.8,0.56-19.61,0.84-29.41c0.59-20.09,1.23-40.18,1.71-60.27
			c0.1-4.04,0.91-6.17,6.45-5.94c6.01,0.25,12.03,0.41,18.05,0.53C575.62,401.2,577.59,402.54,577.41,409.13z"/>
		<path class="st1" d="M229.61,450.42c1.24,9.06,7.77,15.16,16.07,17.29c8.53,2.18,16.81,0.99,24.37-3.83
			c1.34-0.85,2.55-1.89,3.83-2.83c2.2-1.63,4.23-1.31,6.25,0.56c3.63,3.36,7.31,6.68,11.13,9.81c3.06,2.51,3.3,4.54,0.54,7.27
			c-8.29,8.22-18.15,13.69-29.7,15.11c-12.31,1.51-24.37,0.22-35.81-5.45c-5.5-2.73-10.52-6.1-14.54-10.48
			c-15.24-14.59-13.74-33.99-13.11-42.24c0.84-9.82,4.64-18.71,10.75-26.49c8.1-10.3,22.73-18.68,42.63-18.1
			c11.2,0.33,18.5,2.51,24.42,5.62c13.6,7.14,21.54,18.72,24.11,33.66c1.08,6.26,0.67,12.8,0.68,19.21c0,2.11-1.65,2.98-3.81,2.9
			C287.35,452.09,230.59,450.45,229.61,450.42z M230.76,431.05c13.54,0.4,27.07,0.79,40.63,1.19c-1.22-8.82-8.78-16.35-18.67-16.64
			C240.17,415.23,232.11,422.39,230.76,431.05z"/>
		<path class="st1" d="M461.63,457.21c1.24,9.06,7.77,15.16,16.07,17.29c8.53,2.18,16.81,0.99,24.37-3.83
			c1.34-0.85,2.55-1.89,3.83-2.83c2.2-1.63,4.23-1.31,6.25,0.56c3.63,3.36,7.31,6.68,11.13,9.81c3.06,2.51,3.3,4.54,0.54,7.27
			c-8.29,8.22-18.15,13.69-29.7,15.11c-12.31,1.51-24.37,0.22-35.81-5.45c-5.5-2.73-10.52-6.1-14.54-10.48
			c-15.24-14.59-13.74-33.99-13.11-42.24c0.84-9.82,4.64-18.71,10.75-26.49c8.1-10.3,22.73-18.68,42.63-18.1
			c11.2,0.33,18.5,2.51,24.42,5.62c13.6,7.14,21.54,18.72,24.11,33.66c1.08,6.26,0.67,12.8,0.68,19.21c0,2.11-1.65,2.98-3.81,2.9
			C519.36,458.88,462.61,457.24,461.63,457.21z M462.78,437.84c13.54,0.4,27.07,0.79,40.63,1.19c-1.22-8.82-8.78-16.35-18.67-16.64
			C472.19,422.02,464.13,429.18,462.78,437.84z"/>
		<path class="st1" d="M810.65,510.75c-10.77,0.15-21.06-2.81-30.82-7.61c-3.33-1.63-6.31-4.03-9.3-6.27
			c-1.71-1.28-2.01-2.96-0.61-4.91c3.57-4.94,6.92-10.05,10.56-14.94c2.24-3,4.76-0.79,7.07,0.18c5.73,2.41,11.26,5.52,17.2,7.18
			c4.08,1.14,10.23,1.32,13.08,0.33c1.99-0.69,4.03-1.6,4.39-3.89c0.46-2.87-1.05-4.44-3.28-5.34c-5.09-2.07-10.25-3.98-15.46-5.72
			c-7.41-2.47-14.82-5.04-20.68-10.35c-4.88-4.42-7.58-10.09-8.39-16.84c-0.78-6.47,0.38-12.48,3.09-18.13
			c3.58-7.49,9.49-12.11,20.19-15.43c10.7-3.32,25.36-3.54,44.17,3c3.86,1.62,7.57,3.63,11.23,5.67c2.2,1.24,2.51,4.03,1.09,6.23
			c-2.8,4.32-5.59,8.65-8.33,13.02c-2.02,3.22-4.22,4.01-7.36,2.23c-6.22-3.53-12.74-5.75-19.95-6.47c-3.21-0.32-6.19-0.45-9.1,0.67
			c-3.09,1.19-3.86,4.3-1.38,6.54c2.09,1.9,4.73,3.39,7.37,4.45c6.84,2.74,13.94,4.85,20.71,7.74c9.24,3.94,16.44,10.56,17.62,20.8
			c1.82,15.75-2.73,28.87-20.87,35.13C825.72,510.49,818.39,511.17,810.65,510.75z"/>
		<path class="st1" d="M189.49,340.22c0.12-4.03-1.4-6.08-5-6.24c-7.37-0.33-14.75-0.55-22.13-0.65c-3.82-0.05-5.07,1.36-5.18,5.21
			c-0.32,10.84-3.95,136-4.21,144.9c-0.12,4.03,1.4,6.08,5,6.24c7.37,0.33,14.75,0.55,22.13,0.65c3.82,0.05,5.07-1.36,5.18-5.21
			C185.59,474.3,188.68,367.84,189.49,340.22z"/>
	</g>
	<g>
		<path class="st0" d="M524.13,362.12c0.04-0.27,0.09-0.54,0.13-0.8c0.11,0.21,0.22,0.43,0.33,0.64
			C524.44,362.02,524.29,362.07,524.13,362.12z"/>
		<path class="st1" d="M629.83,247.52c0.14,0.16,0.28,0.32,0.42,0.49C630.11,247.85,629.97,247.69,629.83,247.52z"/>
		<g>
			<path class="st1" d="M631.5,280.81c2.18,8.88,9.31,14.27,17.78,15.52c8.71,1.28,16.83-0.77,23.84-6.35
				c1.24-0.99,2.34-2.14,3.51-3.22c2.02-1.85,4.07-1.75,6.28-0.09c3.96,2.96,7.96,5.88,12.1,8.59c3.31,2.17,3.75,4.18,1.3,7.17
				c-7.39,9.04-16.62,15.51-27.96,18.12c-12.09,2.79-24.22,2.77-36.18-1.69c-5.76-2.14-11.1-4.97-15.55-8.91
				c-16.68-12.92-17.21-32.37-17.44-40.65c-0.19-9.85,2.66-19.09,7.93-27.47c6.98-11.09,20.66-20.95,40.51-22.45
				c11.17-0.84,18.66,0.57,24.87,3.04c14.27,5.68,23.37,16.37,27.49,30.96c1.73,6.11,2,12.66,2.68,19.04
				c0.22,2.1-1.34,3.13-3.49,3.29C689.09,276.45,632.48,280.74,631.5,280.81z M630.62,261.43c13.5-1.02,27.01-2.04,40.53-3.05
				c-2.13-8.64-10.44-15.35-20.3-14.61C638.33,244.71,631.06,252.68,630.62,261.43z"/>
			<path class="st1" d="M546.96,304.48c-0.2-2.53-1.55-3.85-4.18-3.54c-4.01,0.48-8.02,0.94-12.02,1.5
				c-3.21,0.45-5.59-1.02-7.53-3.25c-2.28-2.64-2.7-5.92-2.92-9.32c-0.67-10.44-1.53-20.87-2.34-31.58
				c6.5-0.49,12.77-0.93,19.04-1.45c4.18-0.34,5.52-1.97,5.21-6.18c-0.37-5.13-0.78-10.27-1.16-15.4c-0.46-6.22-2.73-6.72-7.22-6.19
				c-5.94,0.7-11.93,0.96-17.98,1.42c-0.71-9.36-1.39-18.36-2.06-27.37c-0.27-3.66-2.23-5.57-5.99-5.38
				c-7.37,0.38-14.72,1.05-22.08,1.69c-3.1,0.27-4.5,2.06-4.27,5.15c0.65,8.72,1.32,17.43,1.96,26.15c0.05,0.73,0,1.46-0.01,2.21
				c-3.12,0.23-26.53,1.98-34.32,2.58c-0.69-9.21-1.34-18.02-2.03-26.83c-0.38-4.81-2.04-6.25-6.8-5.91
				c-6.49,0.46-12.98,0.95-19.46,1.47c-5.43,0.44-6.33,1.53-5.96,7.12c0.23,3.49,0.52,6.97,0.78,10.46c0.4,5.3,0.8,10.6,1.21,16.12
				c-3.5,0.26-6.77,0.6-10.05,0.73c-2.74,0.11-4.16,1.44-4,4.09c0.39,6.68,0.82,13.36,1.47,20.02c0.31,3.1,1.74,4,4.88,3.79
				c3.18-0.21,6.36-0.47,9.81-0.73c0.85,11.33,1.53,22.29,2.57,33.21c0.5,5.21,1.14,10.53,2.68,15.5c3.38,10.86,10.6,18.44,21.85,21
				c11.12,2.53,22.09,0.83,32.55-3.6c1.32-0.56,2.99-2.43,2.96-3.65c-0.16-6.4-0.76-12.79-1.33-19.17
				c-0.22-2.39-1.61-3.57-4.17-3.19c-3.41,0.52-6.86,0.84-10.27,1.39c-7.75,1.25-11.4-3.66-12.02-10.44
				c-0.95-10.35-1.61-20.72-2.38-31.08c-0.06-0.79-0.04-1.59-0.05-2.41c7.8-0.57,31.31-2.36,34.37-2.59
				c0.93,12.34,1.86,24.34,2.73,36.34c0.41,5.72,1.73,11.16,4.12,16.41c4.55,10.01,12.31,15.68,23,17.44
				c5.29,0.87,10.53,0.46,15.88-0.4c4.81-0.77,9.45-1.69,13.95-3.54c2.18-0.89,3.11-2.29,2.93-4.58
				C547.86,316.49,547.44,310.48,546.96,304.48z"/>
			<path class="st1" d="M358.45,247.24c-0.23-3.1,1.26-4.89,4.28-5.12c6.97-0.54,13.93-1.15,20.9-1.55c5.43-0.31,6.95,1.89,7.26,6.1
				c2.09,28.84,4.27,57.67,6.51,86.5c0.36,4.57-0.54,7.7-6.92,8c-6.69,0.32-13.35,0.97-20.03,1.47c-3.22,0.24-4.91-1.25-5.15-4.55
				C364.16,323,359.59,262.44,358.45,247.24z"/>
			<path class="st1" d="M371.58,185.85c11.58-0.87,20.49,6.83,21.4,17.62c0.9,10.67-6.18,19.78-18.53,20.72
				c-12.12,0.91-20.27-7.05-21.08-17.69C352.56,195.71,359.42,186.76,371.58,185.85z"/>
			<path class="st1" d="M337.68,193.67c-0.3-4.02-2.02-5.9-5.62-5.68c-7.37,0.44-14.73,0.99-22.08,1.66
				c-3.8,0.35-4.9,1.88-4.61,5.72c0.81,10.81,10.25,135.67,10.92,144.55c0.3,4.02,2.02,5.9,5.62,5.68
				c7.37-0.44,14.73-0.99,22.08-1.66c3.8-0.35,4.9-1.88,4.61-5.72C347.79,327.42,339.76,221.23,337.68,193.67z"/>
			<path class="st1" d="M582.08,175.25c-0.3-4.02-2.02-5.9-5.62-5.68c-7.37,0.44-14.73,0.99-22.08,1.66
				c-3.8,0.35-4.9,1.88-4.61,5.72c0.81,10.81,10.25,135.67,10.92,144.55c0.3,4.02,2.02,5.9,5.62,5.68
				c7.37-0.44,14.73-0.99,22.08-1.66c3.8-0.35,4.9-1.88,4.61-5.72C592.19,309,584.16,202.81,582.08,175.25z"/>
		</g>
	</g>
</g>
<g id="Layer_2">
</g>
<g id="Layer_3">
</g>
</svg>
